<?xml version="1.0" encoding="UTF-8"?>
<svg xmlns="http://www.w3.org/2000/svg" width="77" height="68" viewBox="0 0 77 68" fill="none">
  <g id="Group 285">
    <path id="Vector" d="M26.9675 37.5907C37.405 37.5907 45.8614 29.1737 45.8614 18.7954C45.8614 8.41702 37.405 0 26.9675 0C16.53 0 8.07355 8.41702 8.07355 18.7954C8.07355 29.1737 16.5398 37.5907 26.9675 37.5907Z" fill="#FFE2B9"></path>
    <path id="Vector_2" fill-rule="evenodd" clip-rule="evenodd" d="M69.6341 7.44159C69.3285 7.35289 68.9934 7.52044 68.9047 7.82597C68.8259 8.06252 68.8259 8.22021 68.8456 8.32863C68.8653 8.42719 68.9146 8.47647 68.9737 8.50604C69.0427 8.5356 69.1314 8.54546 69.2596 8.52575C69.3778 8.50604 69.506 8.45676 69.6341 8.38776C69.7622 8.31877 69.8706 8.23007 69.9593 8.14136C70.048 8.05266 70.0973 7.96396 70.117 7.88511C70.1269 7.80626 70.117 7.74712 70.0579 7.67813C69.9988 7.59929 69.8608 7.52044 69.6439 7.45145L69.6341 7.44159ZM68.6288 7.73727C68.7668 7.27404 69.2596 7.02764 69.7129 7.16562C69.9593 7.24447 70.1466 7.34303 70.255 7.48101C70.3733 7.619 70.4127 7.77669 70.3831 7.93439C70.3536 8.08223 70.2649 8.22021 70.1564 8.33848C70.048 8.45676 69.9101 8.55532 69.7622 8.63416C69.6144 8.71301 69.4567 8.77215 69.299 8.80172C69.1413 8.83128 68.9836 8.82143 68.8456 8.76229C68.7076 8.6933 68.5992 8.56517 68.5499 8.38776C68.5105 8.21036 68.5302 8.00338 68.6091 7.74713H68.6189L68.6288 7.73727Z" fill="#305489"></path>
    <path id="Vector_3" fill-rule="evenodd" clip-rule="evenodd" d="M41.0024 39.1379C40.6969 39.0492 40.3618 39.2167 40.2731 39.5223C40.1942 39.7588 40.1942 39.9165 40.214 40.0249C40.2337 40.1235 40.2829 40.1728 40.3421 40.2023C40.4111 40.2319 40.4998 40.2418 40.6279 40.222C40.7462 40.2023 40.8743 40.153 41.0024 40.0841C41.1306 40.0151 41.239 39.9264 41.3277 39.8377C41.4164 39.7489 41.4657 39.6602 41.4854 39.5814C41.4952 39.5025 41.4854 39.4434 41.4262 39.3744C41.3671 39.2956 41.2291 39.2167 41.0123 39.1477L41.0024 39.1379ZM39.9971 39.4336C40.1351 38.9703 40.6279 38.7239 41.0813 38.8619C41.3277 38.9408 41.5149 39.0393 41.6234 39.1674C41.7416 39.3054 41.7811 39.4631 41.7515 39.6208C41.7219 39.7687 41.6332 39.9066 41.5248 40.0249C41.4164 40.1432 41.2784 40.2417 41.1306 40.3206C40.9827 40.3994 40.825 40.4586 40.6673 40.4882C40.5096 40.5177 40.3519 40.5177 40.214 40.4487C40.076 40.3797 39.9676 40.2516 39.9183 40.0742C39.8788 39.8968 39.8986 39.6898 39.9774 39.4336H39.9873H39.9971Z" fill="#305489"></path>
    <path id="Vector_4" fill-rule="evenodd" clip-rule="evenodd" d="M7.36394 24.6896C7.05841 24.6009 6.7233 24.7685 6.6346 25.074C6.55575 25.3106 6.55575 25.4683 6.57546 25.5767C6.59517 25.6752 6.64445 25.7245 6.70359 25.7541C6.77258 25.7836 6.86129 25.7935 6.98941 25.7738C7.10769 25.7541 7.23581 25.7048 7.36394 25.6358C7.49207 25.5668 7.60049 25.4781 7.68919 25.3894C7.77789 25.3007 7.82717 25.212 7.84689 25.1332C7.85674 25.0543 7.84689 24.9952 7.78775 24.9262C7.72861 24.8473 7.59063 24.7685 7.3738 24.6995L7.36394 24.6896ZM6.35863 24.9853C6.49661 24.5221 6.98941 24.2757 7.44279 24.4137C7.68919 24.4925 7.87645 24.5911 7.98487 24.7291C8.10314 24.867 8.14257 25.0247 8.113 25.1824C8.08343 25.3303 7.99473 25.4683 7.88631 25.5865C7.77789 25.7048 7.63991 25.8034 7.49207 25.8822C7.34423 25.9611 7.18653 26.0202 7.02884 26.0498C6.87114 26.0793 6.71345 26.0695 6.57546 26.0103C6.43748 25.9413 6.32906 25.8132 6.27978 25.6358C6.24036 25.4584 6.26007 25.2514 6.33892 24.9952H6.34877L6.35863 24.9853Z" fill="#305489"></path>
    <path id="Vector_5" d="M14.8841 43.4653C15.9781 43.002 17.0524 42.5684 18.0971 42.0953C21.9804 40.3311 26.0213 39.9762 30.1806 40.8239C35.4338 41.8982 40.7462 42.4698 46.0684 43.0217C48.1382 43.2386 50.1981 43.6032 52.2186 44.1355C52.5734 44.2242 52.8789 44.2439 53.2436 44.1059C55.747 43.1499 58.28 42.253 60.7834 41.2674C63.4347 40.2226 66.0071 40.0551 68.4415 41.7996C68.7372 42.0066 68.9639 41.8784 69.2103 41.77C70.1269 41.3955 71.0632 41.1294 72.0291 40.9618C73.2808 40.745 74.4734 40.9224 75.5871 41.5926C76.1588 41.9376 76.4249 42.391 76.4249 43.071C76.4249 44.234 75.9912 45.2196 75.3309 46.1264C74.3354 47.4766 73.1133 48.6101 71.7038 49.4774C65.2876 53.4198 59.6106 58.3379 53.5885 62.8126C52.1397 63.8869 50.612 64.8626 49.1731 65.9566C46.4134 68.056 43.3482 68.4601 40.1055 67.5237C33.0881 65.5131 25.9819 63.7982 19.0039 61.6693C17.8212 61.3046 16.6384 61.0286 15.3966 60.9005C14.9728 60.8611 14.7362 60.9301 14.5982 61.4229C14.135 63.1674 12.9424 64.1628 11.0895 64.3008C9.15774 64.4487 7.22596 64.5275 5.29419 64.6162C4.59441 64.6458 3.88478 64.5866 3.19486 64.4585C1.2828 64.1136 0.287344 63.0787 0.0803683 61.1469C0.0310884 60.7034 -0.00833559 60.25 0.0015204 59.7966C0.228208 55.2432 -0.0280476 50.6996 0.0606563 46.1461C0.0803683 45.1506 0.10008 44.1453 0.316912 43.1597C0.69144 41.4546 1.89387 40.5676 3.47083 40.3508C5.8067 40.0452 8.16228 39.8284 10.5376 40.0058C10.991 40.0354 11.4345 40.1142 11.878 40.2029C13.6324 40.5676 14.6475 41.6222 14.8939 43.4455H14.9038L14.8841 43.4653ZM44.8956 50.5024H46.6302C49.3702 50.4729 52.1101 50.6109 54.8403 50.4039C55.5499 50.3447 56.1511 50.0983 56.4468 49.4577C56.7425 48.8368 56.4566 48.2454 56.0525 47.723C55.6287 47.1711 55.0571 46.8163 54.4362 46.5108C52.938 45.7716 51.3118 45.3773 49.6856 45.1014C47.6848 44.7564 45.6446 44.6086 43.634 44.2932C39.869 43.6821 36.1139 42.9823 32.3587 42.3515C28.9584 41.7799 25.5483 41.2674 22.1085 41.977C19.7628 42.4599 17.486 43.1499 15.4163 44.3917C15.1206 44.5691 14.9136 44.7465 14.9136 45.1408C14.9136 46.2348 14.8742 47.3387 14.8446 48.4425C14.7855 51.2613 14.9728 54.09 14.8742 56.9187C14.8446 57.7367 14.8052 58.5646 14.9531 59.3925C15.022 59.7671 15.16 59.9248 15.5444 59.8558C16.1752 59.7474 16.806 59.8558 17.4072 60.0135C22.4732 61.3736 27.5194 62.7929 32.5953 64.1136C35.7492 64.9316 38.7553 66.2622 41.9979 66.7845C43.8311 67.0802 45.5953 66.9718 47.2511 66.0158C48.1677 65.4835 49.0548 64.902 49.8433 64.2121C54.3277 60.3387 59.2065 56.9581 63.8881 53.341C66.4112 51.3895 69.161 49.7632 71.694 47.8216C72.6993 47.0528 73.5666 46.1362 74.1284 44.9929C74.4734 44.2932 74.8578 43.4653 74.296 42.795C73.7539 42.1544 72.8669 42.1643 72.039 42.3121C70.9154 42.5092 69.9002 42.9429 68.8949 43.4751C65.5439 45.2492 62.2815 47.181 58.9995 49.0733C58.625 49.2901 58.3391 49.5661 58.0829 49.9308C57.3043 51.0445 56.2201 51.6654 54.8501 51.7246C54.4854 51.7344 54.17 51.833 53.8547 52.0104C51.6863 53.2325 49.4786 54.3758 47.3596 55.667C45.4278 56.8497 43.565 56.6427 41.6135 55.805C39.5142 54.9081 37.75 53.4789 35.9069 52.1878C35.1381 51.6457 34.3694 51.3303 33.4035 51.3993C32.5559 51.4683 31.6885 51.4388 30.8409 51.3993C30.496 51.3895 29.8553 51.5866 29.8553 51.2219C29.8553 50.739 30.5058 50.6404 30.9395 50.6601C33.4232 50.7291 35.9069 50.463 38.3906 50.4827C40.5491 50.4926 42.7174 50.4827 44.8758 50.4827L44.8956 50.5024ZM8.12286 63.5321C8.77335 63.4729 9.84766 63.3349 10.922 63.3054C11.8386 63.2758 12.2624 62.7731 12.5581 62.0241C12.8143 61.3834 13.0607 60.7921 12.8636 60.0332C12.6665 59.2743 13.0213 58.4365 12.9227 57.6677C12.7847 56.5146 12.7946 55.3713 12.8636 54.228C12.9326 53.1636 12.8045 52.109 12.8734 51.0347C12.972 49.4873 12.9523 47.9103 12.8636 46.3531C12.7847 45.0915 13.0903 43.7708 12.4398 42.5486C12.1638 42.0361 11.8583 41.7207 11.2965 41.5828C10.37 41.3659 9.45341 41.1294 8.50724 41.1294C7.27524 41.1294 6.06295 40.8928 4.83096 41.1688C3.24414 41.5236 2.29797 42.4501 2.04171 43.9186C1.67704 45.9982 2.06142 48.0779 2.04171 50.1575C2.04171 50.877 1.96286 51.5965 1.97272 52.3258C2.00229 53.7943 2.00229 55.2629 2.04171 56.7216C2.08113 58.0718 1.84459 59.432 2.05157 60.7921C2.23883 62.0044 3.06673 63.2068 3.94392 63.2265C5.20548 63.2561 6.42763 63.5321 8.113 63.5222L8.12286 63.5321ZM66.8153 42.7063C65.6621 41.7306 64.3119 41.4448 62.8827 41.7405C60.0245 42.3417 57.3535 43.5343 54.6431 44.5888C54.5939 44.6086 54.5643 44.6973 54.515 44.7662C54.8994 45.0225 55.3429 44.9929 55.747 45.1112C56.9494 45.4463 58.073 45.9588 58.3983 47.2795C58.5757 47.9694 58.7235 47.8807 59.1867 47.5555C61.4733 45.949 63.8289 44.4804 66.2634 43.1203C66.4506 43.0119 66.6872 42.9527 66.8054 42.7063H66.8153ZM52.12 51.764C52.12 51.764 52.0904 51.6753 52.0806 51.6359H37.9964C39.593 52.6215 41.0024 53.4789 42.3231 54.4547C42.8652 54.8489 43.4566 55.1939 44.1071 55.4107C44.59 55.5684 45.1124 55.6867 45.5756 55.4403C47.7735 54.2379 49.9418 53.0059 52.1299 51.7837L52.12 51.764Z" fill="#305489"></path>
    <path id="Vector_6" d="M66.8547 21.1704H66.8448C67.0222 20.3129 66.0465 19.6526 65.4847 19.1499C64.7061 18.46 63.8979 17.7898 63.0897 17.1295C61.4733 15.8285 59.788 14.5965 58.0632 13.4532C57.9843 13.4039 57.9055 13.3743 57.8365 13.3743C57.7872 13.3546 57.7379 13.3448 57.6788 13.3448C51.913 13.1871 46.1374 13.0195 40.3618 12.8717C40.2632 12.8224 40.1548 12.8125 40.0563 12.852C40.0267 12.8618 39.9971 12.8815 39.9774 12.8914C39.938 12.9012 39.9084 12.921 39.8789 12.9308C37.9569 13.7883 36.5081 15.385 35.0198 16.8239C34.1525 17.6518 33.2852 18.4896 32.4179 19.3175C31.8561 19.8596 30.7621 20.786 31.5703 21.6041C31.6491 21.6829 31.7477 21.7322 31.8364 21.7421C36.1434 26.4335 39.8 31.7262 44.5112 36.0333C45.8614 37.2653 47.2906 38.3987 48.8084 39.404C49.0055 39.5321 49.1829 39.4927 49.3209 39.3941C49.3702 39.3843 49.4096 39.3547 49.4589 39.3153C49.6856 39.1477 49.8925 38.9703 50.1094 38.7929C50.6219 39.1182 51.2822 39.1379 51.8145 38.5465C56.5256 33.1652 61.3255 27.8528 66.2141 22.6291C66.4605 22.363 66.5886 22.0673 66.6182 21.7815C66.6576 21.7421 66.697 21.7026 66.7364 21.6632C66.8941 21.5154 66.9138 21.338 66.8646 21.1901L66.8547 21.1704ZM33.9653 19.1697C34.6946 18.4699 35.4338 17.7701 36.1631 17.0605C37.3951 15.8778 38.6271 14.5373 40.214 13.8376C46.0191 13.9953 51.8046 14.1628 57.6098 14.3205C59.1375 15.3357 60.6356 16.41 62.0647 17.5434C62.7645 18.1052 63.4544 18.667 64.1344 19.2485C64.4498 19.5245 64.7652 19.8004 65.0708 20.0764C64.8539 20.0764 64.6371 20.1454 64.4301 20.2834C61.6212 20.2834 58.8122 20.2834 56.0033 20.2735C55.9441 19.9976 55.8456 19.7314 55.6977 19.4653C55.2345 18.6079 54.5741 17.8292 54.0123 17.0506C53.4013 16.203 52.0806 15.3652 51.4695 14.5176C51.1048 14.015 50.9767 14.4979 51.3414 15.0104C52.3664 16.4395 53.421 17.8489 54.4263 19.2879C54.6924 19.6625 54.9092 20.037 55.0374 20.4312C51.3217 20.2834 47.5961 20.1355 43.8804 19.9877C43.9691 19.6822 44.0775 19.3668 44.2056 19.0514C44.8758 17.4153 46.0388 16.0059 47.5271 15.0597C48.0495 14.7246 47.5665 14.5965 47.0343 14.9316C44.9843 16.2424 43.496 17.6223 42.8948 19.9581H33.1571C33.433 19.7019 33.6991 19.4358 33.9653 19.1795V19.1697ZM43.6636 20.9437C47.4877 21.1014 51.3118 21.2493 55.1359 21.407V21.4858C55.0472 22.2743 54.7614 23.0628 54.4953 23.802C53.4703 26.6898 51.8145 29.3115 50.4051 32.012C49.7348 33.2933 49.1238 34.5943 48.6211 35.9445C47.5074 30.8293 42.8357 26.2561 43.6734 20.9536L43.6636 20.9437ZM49.0646 38.3987C43.7917 34.8505 39.8789 29.7156 35.8478 24.8861C34.7242 23.5359 33.5809 22.2053 32.3883 20.9142H42.678C42.5991 21.4365 42.5597 21.9786 42.5695 22.5108C42.6582 25.852 44.4717 28.7694 45.9403 31.6572C46.7682 33.3031 47.5074 35.0181 47.7932 36.8513C47.8425 37.1765 48.1185 37.2554 48.3649 37.1667C48.5718 37.4328 49.1041 37.4525 49.242 37.0287C50.2178 33.9931 51.913 31.2728 53.4013 28.4639C54.1405 27.0643 54.8304 25.645 55.3725 24.1666C55.7174 23.2303 56.0624 22.2152 56.092 21.2296C58.556 21.2296 61.0101 21.2296 63.4741 21.2394C58.8122 26.2364 54.2292 31.3024 49.725 36.4373C49.2716 36.9499 49.2618 37.5609 49.4884 38.0537C49.3406 38.1621 49.2125 38.2903 49.0646 38.3987Z" fill="#CD704F"></path>
    <path id="Vector_7" d="M76.4446 15.799C76.2376 15.592 75.9715 15.6413 75.7645 15.799C74.1087 17.1 72.2459 18.4897 70.2846 19.2289C70.0382 19.3176 69.8706 19.5541 69.9396 19.8202C69.9988 20.0568 70.2846 19.8892 70.531 19.8104C72.6697 19.012 74.6409 17.8983 76.4446 16.4889C76.6516 16.3312 76.6121 15.9764 76.4446 15.8088V15.799Z" fill="#CD704F"></path>
    <path id="Vector_8" d="M64.6272 4.2086C63.0306 5.89397 61.7099 7.82575 60.744 9.93493C60.6356 10.1715 60.675 10.4573 60.9214 10.5953C61.1284 10.7234 61.1185 10.6643 61.2269 10.4179C62.1534 8.38754 63.7698 6.50504 65.3172 4.88866C65.741 4.43529 65.0609 3.75522 64.6371 4.2086H64.6272Z" fill="#CD704F"></path>
    <path id="Vector_9" d="M48.7591 0.768918C48.7098 2.86824 49.0055 4.97743 48.9562 7.08661C48.9464 7.70754 49.5574 7.70754 49.5673 7.08661C49.6166 4.98728 49.6757 2.8781 49.725 0.768918C49.7348 0.147991 48.769 0.147991 48.7591 0.768918Z" fill="#CD704F"></path>
    <path id="Vector_10" d="M36.8531 10.3194L33.9653 4.64233C33.6794 4.08054 32.8515 4.57334 33.1275 5.13513L36.3701 10.8122C36.6559 11.374 37.129 10.8812 36.8531 10.3194Z" fill="#CD704F"></path>
    <path id="Vector_11" d="M27.756 18.8149C25.8439 18.125 24.06 17.1296 22.4534 15.8976C22.2465 15.7399 21.9114 15.868 21.7931 16.075C21.6452 16.3214 21.7537 16.5776 21.9705 16.7353C23.646 18.0265 25.5187 18.6868 27.5096 19.3964C28.1009 19.6034 28.3572 19.0219 27.7658 18.8149H27.756Z" fill="#CD704F"></path>
    <path id="Vector_12" d="M11.1092 59.1954C10.1433 60.1021 8.91131 58.8603 7.66946 58.8603C8.91131 57.6184 8.29038 55.1347 9.23656 53.6465C9.37454 53.2227 9.18728 52.8876 8.88174 52.7003C8.57621 52.5032 8.1524 52.4539 7.82715 52.6017C7.31464 52.8284 6.81199 53.065 6.29947 53.2917C6.29947 53.2917 6.29947 53.2917 6.29947 53.2818L7.31464 51.7246C7.98485 50.6897 8.66491 49.6449 9.33512 48.6101C9.59137 48.206 9.4731 47.7822 9.18728 47.5062C8.30024 46.4516 7.67931 47.0725 7.05838 47.6935C8.30024 47.0725 8.30024 45.2097 9.23656 45.1309C9.45339 44.8352 9.67022 44.5395 9.88705 44.2537C10.1335 43.9186 10.0546 43.5244 9.81806 43.2385C9.58152 42.9527 9.19713 42.7753 8.83246 42.8936C7.04853 43.9777 3.33282 43.3568 3.33282 45.8405C3.33282 47.7033 5.1956 45.2196 6.43746 45.8405C5.1956 47.7033 2.71189 48.9452 3.33282 51.4289C3.95375 52.0498 5.1956 51.4289 5.81653 50.8079C5.81653 51.4289 5.1956 51.4289 5.03791 51.833C4.78165 52.2272 4.53525 52.6116 4.53525 52.6116C4.21 53.1044 3.77634 53.6268 3.61864 54.1984C3.48066 54.7306 3.65807 55.1939 3.99317 55.4797C4.32828 55.7754 4.83093 55.8936 5.3533 55.7458C5.82639 55.7557 5.82639 55.1347 6.44731 55.1347C7.06824 56.9975 3.34268 58.2394 6.44731 60.7231C8.3101 61.344 10.1729 62.5859 11.8977 60.0529C11.9568 59.5896 11.7104 59.1461 11.1191 59.1954H11.1092Z" fill="#CD704F"></path>
  </g>
</svg>
